<?xml version="1.0" encoding="UTF-8"?> <!-- Generator: Adobe Illustrator 24.3.0, SVG Export Plug-In . SVG Version: 6.00 Build 0) --> <svg xmlns="http://www.w3.org/2000/svg" xmlns:xlink="http://www.w3.org/1999/xlink" version="1.1" id="Layer_1" x="0px" y="0px" viewBox="0 0 1000 520.7" style="enable-background:new 0 0 1000 520.7;" xml:space="preserve"> <path d="M63.7,520l-28.1,0v-38l27.7,0.1v7l-18.2,0v8h17.3v7l-17.3,0v9.2l18.6,0V520z M143.7,520.1h-8l-21.1-24.4V520h-9.5V482l8.7,0 l20.3,23.3v-23.3l9.5,0L143.7,520.1L143.7,520.1z M220.8,489.1l-13.8,0v31h-9.5V489l-13.8,0v-6.9l37,0V489.1z M288.9,520.2 l-28.1-0.1v-38.1l27.6,0.1v6.9l-18.2,0v8h17.3v7l-17.3,0v9.1l18.6,0L288.9,520.2L288.9,520.2z M347.2,482.2c7.8,0,12.5,5.3,12.5,11 c0,4.2-2.2,7.3-6.5,9.3c3.9,1.9,5.1,6.6,10.4,17.8l-10.4,0c-4.1-8.1-5.6-15.5-10.7-15.5l-2.7,0v15.5l-9.5,0v-38L347.2,482.2z M339.8,497.8l5,0c2.6,0,5.2-1.1,5.2-4.3c0-2.8-1.9-4.3-5.4-4.3h-4.8L339.8,497.8L339.8,497.8z M433.8,489.2l-13.8,0v31.1h-9.5 v-31.1l-13.8,0v-7l37,0.1L433.8,489.2L433.8,489.2z M507.3,520.4l-10.2,0l-3.1-7.5l-17,0l-2.9,7.5l-10.1,0l15.3-38l11,0L507.3,520.4 z M485,491.4l-5.6,14.8l11.7,0L485,491.4z M555.7,520.4l-9.5,0v-38h9.5V520.4z M637.1,520.5l-8,0l-21-24.4v24.4l-9.5,0v-38.1 l8.7,0.1l20.3,23.3v-23.2h9.5V520.5z M712.5,482.5h8.3v38.1l-9.5,0v-23.8L701,508.7h-1.4l-10.3-11.9v23.7h-9.5v-38.1l8.3,0 l12.2,14.1L712.5,482.5z M791.5,520.6l-28.1,0v-38.1l27.7,0.1v7l-18.2,0v7.9l17.3,0.1v7l-17.3,0v9.1l18.6,0L791.5,520.6L791.5,520.6 z M871.5,520.7l-8,0l-21-24.4v24.4l-9.5-0.1v-38l8.7,0l20.3,23.3v-23.3l9.5,0L871.5,520.7L871.5,520.7z M948.5,489.6l-13.8,0v31.1 h-9.5v-31.1l-13.8,0v-7l37.1,0.1V489.6z"></path> <path d="M611.1,359.6c-0.1,6.3,3.2,7.6,3.6,11.5v33.3l-0.6,0.4c-1.9,1.3-2.7,2-2.9,2.2c0,0.1,0.1,0.5,0.1,1.1c0,0.4-0.1,0.9-0.1,1.6 l-0.2,1.2h-53.4l-0.4-0.7c-0.7-1.2-1.4-2.1-2.2-3.2l-17.6-1.9c-3.4,3.8-8.9,7.3-13.5,8.9l-0.2,0.1h-0.2c-13.4,0-20.9,0.6-28.7,0.6 c-3.6,0.7-13.2,6.5-20.7,6.6h-0.6l-0.4-0.4c-2.9-3.1-3.6-6.4-3.6-9.2c0-2.6,0.5-4.9,0.5-6v-14.2l0.6-0.4c1.5-1.1,2.3-1.4,3.3-2.6 c0.7-0.9,1-2.4,1-4.1c0-3.4-1.2-7.1-1.2-7.1l-0.3-1l0.8-0.6c3.3-2.3,5.2-3.2,6.7-6.2c0.5-1.2,0.8-2.9,0.8-4.6c0-3.5-0.9-6.9-0.9-6.9 l-0.3-1l0.8-0.5c1.5-1,2.3-1.4,3.2-2.6c0.6-0.8,0.9-2.2,0.9-3.8c0-3.1-1.1-6.5-1.1-6.5l-0.1-0.2v-0.2c0.2-2,2.6-5.5,3.6-9 c0.9-3,1.2-6.9,1.2-10.6c0-7.5-1.3-14.6-1.3-14.9c0.1-3.4-2-4.2-3.5-8.2c-2.7-7.5-3.5-16.7-3.5-25.6c0-17.8,3.4-34.6,3.5-34.8 l21.3-56.4c-0.1-0.8-2.1-1.3-3.5-4c-0.3-0.7-0.4-1.4-0.4-2c0-1.3,0.3-2,0.3-3.3v-0.6l0.4-0.4c0,0,5-5.1,4.9-10.5c0-1.9,0-3,0-4.1 c0-0.6,0-1.1,0-1.8c0.8-4.2,9.6-14.8,10.6-24.9c0.2-1.3,0.2-2.9,0.2-4.4c0-3.1-0.2-5.9-0.2-6c0.3-3.4,14.6-36.4,24.9-46.6V62.3 l0.6-0.4c0.7-0.4,3.1-2.4,3-3.5v-0.1c0-1-0.1-0.4-1.9-2.6h-18.8l-0.4-0.7c-0.9-1.6-1.3-2.4-2.4-3.5c-1.4-1.4-3.3-1.9-5.6-1.9 c-4.7,0-9.7,2.2-12.1,2.3c-0.7-0.2-3.4,2.1-5.6,7.3c-2.4,5.2-4.7,13-6.4,23.2c-3.3,21.3-6.9,24.2-11.4,24.2c-0.7,0-1.4-0.1-1.9,0 c-1.5,0.1-2.6,0.1-4.6,3.1l-0.9,1.4l-1.2-1.1c-1.6-1.4-3.6-3.3-4.3-3.7l-0.9-0.6l0.4-1c1.4-3.5,1.8-6,1.8-7.9 c0.1-3.7-1.8-5.7-1.8-9.9c0.2-3.3,3.2-6.3,5.3-8.3v-66l1.3-0.1c1.2-0.1,3.9-0.1,10.8-0.1c13.8,0,43.9,0.1,109,0.1h0.8l0.4,0.7 c2.2,3.6,2.3,3.3,2.4,3.3c0.2,0,1-0.1,2-0.1c0.2,0,0.5,0,0.8,0l1.2,0.2v4.5l-0.3,0.4c-3.1,3.6-4.4,16.1-14.7,26.5 c0.2,1.2,0.5,3.8,0.5,6.7c0,1.9-0.1,3.9-0.6,5.7c-1.8,6.8-3.6,8-10.5,14.5c0.2,1.2,0.6,3.8,0.6,6.7c0,2-0.2,3.9-0.7,5.7 c-2.5,6.1-6.8,3.4-7.1,10.4c0,0-2,13.5-3.8,22.1c-1.8,8.5-6.2,13.5-6.1,20c0,1,0.1,1.9,0.3,3.3l-1.1,34.8l-0.5,0.4 c-5.2,3.1-4.2,23-13.6,33v12.1l-0.1,0.2c-2.9,7.5-8.3,7.1-10.6,16.8v39.6l-10.7,30.6c0.1,1.2,0.4,5.5,0.4,10.2c0,2.7-0.1,5.6-0.5,8 c-1.4,9.7-7.9,21.6-11.1,27.1c-0.8,1.3-1.2,2-1.6,2.6c0,0.3,0.1,0.6,0.1,0.9c-0.1,3.9-2.9,10.5-3.4,11.8c-0.2,2.5-2.2,6.1-3.2,8 c1.4,1.3,1.8,1.8,2.8,1.8c0.2,0.1,1.1-0.9,2.4-3.1l0.6-1.1l1.1,0.6c2.2,1,4.2,1.4,6.1,1.4c3.9,0,8.1-1.5,13.4-1.5 c1.4-0.3,1.6-1.2,2-4c0.3-2.5,0.7-6.1,3.5-9c5.3-5.6,17.2-6.8,19.7-8.9c14.4-10,20.4-5.3,29.8-20.7l0.9-1.4l1.2,1.1 c1.2,1.1,2.2,2.2,3.3,3.5h17.9l0.4,0.7c1.8,3.1,5.5,5.3,5.6,10.3C614,352.8,611.2,351.5,611.1,359.6 M701.4,287.9 c0,19.5-0.4,38.5-1.5,43.3l-0.1,0.5l-0.4,0.3c-1.9,1.1-4.5,9.2-7.1,17.7c-2.7,8.3-5.6,17.2-10.1,22V392l-0.5,0.4 c-4.1,2.5-4.8,18.1-10.1,24.4v12.7l-0.6,0.4c-1.2,0.8-1.9,1.4-2.9,2.3v16.4l-0.6,0.4c-3,2-2.7,3.9-6.1,4.1c-0.9,0.1-1.5-0.6-1.8-1 c-0.3,0.1-1,0.3-1.9,0.9l-2,1.1l0.1-22.1l-10.7-35v-10.5c0.7-7.9-17.5-14.1-17.7-30.7v-0.5l0.4-0.4c0-0.1,21.7-23.2,22.7-54.7v-0.1 c0.6-2.1-9.1-9.1-19.5-14.5c-9.8-5.6-19.9-10.5-23.2-13.8H601l3,9V300c4.7,1.3,7.7,7.1,10.7,7.4c0.7,0,1.9,0.9,1.8,2 c-0.5,3.1-4.8,5.9-5.5,10.2l-0.2,1.2l-1.2-0.1c0,0-10.9-0.7-19.8-0.7c-4.4,0-8.5,0.2-9.9,0.7c-16.9,5.6-36.1,12.9-36.1,12.9 l-1.1,0.4l-0.6-1c-4.6-7.7-0.7-5.6-5-11.7l-0.5-0.8l0.6-0.8c6.5-8.7,8-10.3,12.6-14.4c0.1-2.2,0.5-9.7,3.3-14.4 c3.7-5.5,11.7-7,10.9-8.9c0.1-0.4-0.9-1.4-3-2.7l-0.7-0.5l0.1-0.8c0,0,1.3-11.3,2.5-17.5c0.4-1.7,0.5-2.7,0.9-3.7 c-0.5-1.5-1.7-5.6-1.7-9.8c0-2.6,0.5-5.2,2.2-7.3c1.2-1.4,2.3-1.9,3.2-2.6v-15.4l0.6-0.4c2.5-2,2.8-2,2.9-4.6 c-0.2-1.2,0.1-0.6-1.1-1.3c-1.2-0.4-2.8-2-2.7-4.9c0-0.8,0.1-1.6,0.3-2.8c0.4-2.1,0.6-3.8,0.6-5.2c0-3.4-0.9-5.7-0.9-8.9 c0-1.4,0.2-2.9,0.8-4.7c1.7-5.5,4.4-7.7,6.8-12.2c0,0,4-8.5,4-20v-0.8l0.7-0.4c8-4.1,3.3-22.1,9.5-36.4c3.1-6.8,5.4-13.2,9.7-17.4 c0.1-0.4,0.1-0.9,0.1-1.2c0-2.5-1.2-4.7-1.3-7.4c0-1.3,0.4-2.7,1.4-3.9c1.2-1.6,2.5-2.1,3.4-2.8c0.6-2.3,3.9-13.2,7.7-20 c2.2-3.9,2.2-6.1,6.9-10.5V40.3l0.6-0.4c2.3-1.7,2.2-2,2.7-3.1c0.5-1.2,1.5-2.6,4.8-4.7l0.3-0.2l0.3,0c3.3-0.4,3.7-3.3,3.8-8.1 c0-1.3,0-2.6,0-4c0-4.9,0.8-11,7.7-11c11.9,0.6,10.5,20,11.9,21.9c9.5,20.8,12.1,17.4,12.5,22.7V64c-0.1,9,12.9,42.4,13,42.6 l11.2,44c1.1,1,2,1.8,3.1,2.5l0.6,0.4V169c2.9,2.8,3.8,4.9,3.8,6.8c0,1.5-0.5,2.5-0.4,3.2c0,0.7,0.2,1.7,3.1,3.9l0.6,0.4v20.9 l-1,0.2c0,0.3,0,0.7,0,1.1c-0.1,7.7,3.7,35,4.7,38.1l0.3,0.2l0.1,0.6C701,250,701.4,269,701.4,287.9 M612.5,234.7 c0,2.5-0.1,4.6-0.5,6.2l-0.1,0.5c2-0.2,4.2-0.4,6.4-0.4c3.3,0,6.8,0.3,10.4,1.1c10.4,2.3,16.1,9.4,22.9,11.5c0.8,0,1.5,0,2.3,0h0.8 c0.1-4.9,0.5-22.8,0.5-37.1c0-7.9-0.1-14.8-0.5-17.4c-2.3-2.6-2.1-7.5-2.8-12.9c-0.5-5.7-1.6-11.5-3.9-13.6c-4.2-4-9.7-1.9-14.7-6.9 c-2.7-3-4.9-7.8-6.4-11.9l-0.6,16l0,0.7l-0.6,0.4c-2.5,1.8-3,4.5-4,7.4c-0.7,2.6-2.4,5.5-6.2,6.1c-0.2,4.3-0.5,18.6-3.5,23.2 c-0.2,1.3-0.3,3.1-0.3,5.2C611.6,219.2,612.5,228.3,612.5,234.7 M465.6,298.4l-1.5,0.4c-5.5,1.2-2.9,5.7-7.5,10.5 c-0.6,1-1.1,7.9-1,15.7c0,15.9,1.2,37.3,1.2,37.3l0.1,1.4h-1.4c-1.4-0.2-11.3,3.7-13,7l-0.4,0.6h-40.6l-0.4-0.6 c-2.3-3.7-2.3-3.6-2.6-3.5c-0.5-0.1-1.9,0.3-4.3,0.3c-4.4,0.1-5.5,1.5-6.8,3.3c-1.2,1.7-2.7,4.4-6.6,4.4h-0.1 c-0.1-0.1-8-1.5-11.9-5.7h-27.7l-0.4-0.7c-1.9-3.3-3.6-3-3.7-6.5c0.4-1.8,1.2-2,2.4-3.5c1-1,2.1-2.1,2.9-2.8V333l0.6-0.4 c3.3-2.4,3.1-2.2,3.1-2.9c0-0.5-0.1-1.4-0.1-2.7c0,0,0-0.1-0.1-0.4c-0.1-0.4-0.3-0.8-0.5-1.4c-0.5-1.1-1.1-2.6-1.8-4.1 c-1.4-2.9-3.4-6.1-4-6.4l-1.1-0.8l0.8-1.1c1.7-2.3,2.2-4.4,2.2-6.3c0-3.7-2.2-6.4-2.2-6.4l-0.3-0.3l0-0.4c-0.3-1.8-0.4-3.7-0.4-5.7 c0-11.3,4-24.4,4-31.2v-0.7l0-0.7l0.6-0.4c3.6-2,2.4-13.6,6.7-22.6c3.9-7.7,12.6-17.5,12.4-17.2c1.2-2.1-0.3-13.2,15-29.8 c0.8-3.9,7.2-35.6,13.4-45.2c0.7-0.9,2.5-2,4.9-3.8c1.6-1.2,3.1-2.3,3.9-2.9c0.3-2,2.4-7.8,14.2-18.7c-0.5-1.9-1.7-6.9-1.8-12.5 c0-3.6,0.5-7.3,2.1-10.7l0.2-0.3l0.3-0.2c7.7-5.5,12.2-17.9,24.3-29.2v-24l-39-0.4c-5.8,5.5-21.3,6.1-21.4,26.5v1.4h-1.4 c-1.2,0-4.8,1.1-7.7,2.9c-3,1.8-5.2,4.3-5.2,6.3v28.8c-0.2,2.8-2.3,5.8-7.3,14.1l-0.9,1.4l-1.2-1.1c-2.6-2.3-3.4-4.5-3.4-6.3 c0-1.4,0.3-2.4,0.3-3.1c0-0.9-0.2-1.9-3-4l-0.5-0.3l-0.1-0.6c0,0-1-7.4-1.9-12c-0.4-2.7-0.6-5.3-1-5.3l-0.9-0.6l0.4-1 c0,0,3.3-8.8,3.3-16.7c0-3.9-0.9-7.6-3-9.7c-1.2-1.2-2-1.8-3.4-2.7l-0.6-0.4V26.8l0.3-0.4c0,0,3.4-4.7,3.3-7.9l0-0.7l-0.2-1.5h1.6 c50.1,0,54.8,0.4,104,0.4h1.4v19.6c-0.3,3,3.2,3.5,3.5,8.6v64.9l-0.5,0.4c-3.3,2.8-4.4,7.7-4.4,12.2c0,5.1,1.2,9.5,1.2,9.5l0.3,0.9 l-0.8,0.5c-10.4,7.2-15.7,36-21.9,43.4v16.7l-0.8,0.4c0,0-14.4,6.2-17,13.6c-0.7,1.7-0.9,4-0.9,6.4c0,4.6,1,9.1,1,9.1l0.2,1.1 l-1,0.4c-11.7,4.4-30.6,57.2-30.2,60.2v9.6l-1.5,0.1l0.8,0.7l-0.1,0.2c-0.1,0.2-0.4,0.7-0.7,1.3c-0.5,1.2-1.3,3-2.1,5.2 c-1.7,4.4-3.8,10.3-6,16.5c-4.2,11.5-8.6,23.4-11.4,27.8c1.9,2.8,2.1,2.8,2.2,2.7c0.4,0,1.5-0.2,3.2-0.2c3.1,0.1,4.5-1.8,18.1-8.5 c2.9-1,6.4,1,16.9-3.8c1.6-0.5,5.9-8.4,11-15.8c5-7.1,11.5-14.3,20.3-15c0.5-3.7,2.8-11.4,6.5-15l1.3-1.2l0.9,1.5 c0.7,1.2,1.2,1.9,1.9,2.9c11.3-5.2,6.3-10.8,12.2-17.9l0.4-0.5h10l-0.1,1.4c0,0,0,1.4,0,3.5c0,4.7,0.3,13.2,1.9,16.8L465.6,298.4z M162.6,322.3c0,4.3,2.5,12.9,2.5,21.1c0,1.9-0.1,3.8-0.5,5.6c-1.4,7.3-6,17.6-6.1,17.8c0,0-7.3,10.6-10.2,17.9 c-3.5,8.8-4.9,24.3-4.9,24.3l-0.1,0.8l-0.7,0.4c0,0-14.8,6.8-22.9,12.8c-7.3,5.3-14.6,10-16.4,14.9l-0.3,0.8l-0.8,0.1 c0,0-17.5,2.5-22.6,4.5c-0.7,0.2-1,0.4-1,0.4c-1,1.3-2.1,2.1-3.4,2.1c-4.1-0.8-5-5.5-7.8-5.1c-1.1,0-2.8,0.6-5.3,3 c-1.8,3.7-7.1,3.8-12.9,4c-8.7,0-19.2-1.6-21.6-2c-1.2,0.6-2.6,0.6-4.2,0.7c-3.9,0-8.8-0.8-11.6-0.8c-0.7,0-1.2,0-1.4,0.1L9.7,447 l-1.2-1.2c-1.6-1.4-3.6-3.3-4.3-3.7L2,440.7l2.5-0.9c0,0,8.2-3.2,10.8-5.6l0,0l0,0c0.1-0.1,0.1-0.3,0.3-0.6c0.2-0.6,0.5-1.4,0.9-2.5 c0.7-2.1,1.5-5,2.3-8.3c1.7-6.5,3.5-14.5,4.6-20.5c0-20.8,1.2-31.5,1.2-42.4c0-5.4-0.3-11-1.2-17.9c-0.3-2.6-1.4-21.7-3.1-35.6 c0-22.5,1.3-45.5,1.3-59.1c0-2.6-0.1-4.9-0.2-6.7l0-1.3l1.3-0.1c2.8-0.2,4-2.5,4.3-3.1l-0.8-17.8l-2.7-5.7l0.4-26 c0.5-3.8,3.4-7.7,3.4-7.6c0.3-0.4,0.6-2.9,0.6-5.4c0-3.4-0.3-7.2-0.4-8.2l-3.9-6.4V68.3l0.6-0.4c3.4-2.4,3.3-2.4,3.3-2.9 c0-0.6-0.3-2.1-0.3-4.6c0-2.6,0.1-3.8,0.1-4.2l-0.1,0c-0.4-0.3-1-0.9-2-2.1c-0.7,0.1-1.9,0.1-3,0.2c-0.2,0.4-0.5,0.8-1.2,0.9 c-1-0.2-1.2-0.4-1.5-0.8h-0.1c-0.4,0-0.6,0-1.1-0.1c-0.1-0.1-0.8,0.1-1.1-1.4c0.1-0.7,0.3-0.9,0.5-1.1c-0.8-0.8-1.5-1.6-1.8-2 L3.9,38.6c-1.5-2.6-2.3-3.1-2.6-3.3C1,35.3-0.3,33.8,0.1,33c0-0.7,0-1.8,0-3.7c0-3.4-0.2-4.3,0.7-5.6c0.8-0.9,1.2-0.9,3-3.8l0.4-0.7 h18.9c2.6-1.8,8-2.3,14.2-3.2c6.7-0.8,13.5-1.3,15.8-1.3L72,15.3c18.9,0,25.9-1.8,35.9-1.9c4.4,0,9.4,0.4,16.2,1.5L125,15l0.2,0.9 c1.4,5.5,6.8,7.8,9.4,10.1c0.5-0.1,1.2-0.1,2.1-0.1c2.4,0,6,0.4,9.2,2.6c11.8,8.1,18.3,27.4,18.4,37.6c0,10.2,2.3,19.7,2.3,27.3 c0,4.5-0.9,8.4-3.5,11l-13.2,24.7c-4.9,9.3-16.7,23.4-20.7,28.1c0.3,0.5,1.5,2.2,4,3.6c2.9,1.7,7,3.2,12.1,3.8 c3.2,0.5,4.7,3.1,4.6,5.5c-0.1,4.7-3.7,9.9-4.1,10.4c-0.1,0-0.3,0.4-0.3,1.1c0,0.9,0.4,2.3,0.9,3.3c0.6,1,1.3,1.4,1.3,1.4 c0,0,0.1,0.1,0.6-0.6l0.9-1.4l1.2,1.2c5.5,5.4,6.2,6.9,6.3,8.3c0.1,0.5-1-0.5,3.3,2.9l0.7,0.5l-0.2,0.9c0,0-2.9,12-2.9,24.3 c0,6.1,0.7,12.3,2.8,17.1c1,2.9,6.9,4.5,7.5,8.9c0,1-0.4,1.9-1.1,2.7c0,1.3,0,4.7,0,8.3c0,2.3,0,4.8,0,6.8c0,0.5,0,0.9,0,1.4 c0,11.2,2.1,21.9,2.1,31.7c0,7.7-1.3,14.8-6.1,20.9C162.8,320.4,162.6,321.1,162.6,322.3 M113.9,77.3c0.1-0.4-0.2-1.2,0.8-1.7 l5.1-3.6c-5.9-2-11,1.6-15.9-8.5l-1.6,0l-15.7,2.3l1-2.2c0.1-0.4,0.3-0.8,0.3-1.2c-0.4,0.2-0.9,0.4-1.3,0.6c-0.8,2.5-0.7,3.7-0.8,5 c0,1.6-0.9,3.2-3.5,4.6v67.9c1.4-0.5,2.6-0.6,3.6-0.6H86c1.9,0,3.3,0.9,3.8,1.2c7.1-2.1,4.1-19.5,24.2-21.9c0-1.8-0.1-4.7-0.1-7.9 c0.3-8,0-17.8,3.5-21.6C116.5,87.1,114,80,113.9,77.3 M116.8,319.1c0.1-2.4,1.3-4.5,1.2-6c0-1-0.2-1.6-1.5-2.5l-1.8-1.1l1.7-1.2 c1-0.7,1.3-1.5,1.3-2.8c0.1-4.2-4.7-11.5-4.8-18.5c0-3.1,1.1-6.3,4.2-8.7c-0.1-8.3-1.4-9.4-2.5-10.7c-1.5-1.5-3.4-3.5-3.3-11 c0.1-3.9,3.5-11,3.5-15.1c0-1.5-0.4-2.2-1-2.5l-1.2-0.7l0.6-1.2c0.7-1.3,0.9-2.6,0.9-3.8c0-4.4-3.4-8.2-3.4-8.2l-1.9-2.2l2.9-0.1 c0.4,0,0.7-0.1,0.9-0.1c-0.1-0.9-2.6-3.5-2.8-6c0-0.8,0.4-1.7,0.9-2c0.4-0.4,0.5-0.7,0.5-1.3c0.3-2.8-5.7-8.4-5.6-8.3 c-6.8-3.7-14.6-11.2-14.7-11.3l-8.8-9.1c0.1,4.6,0.3,13,0.3,20.6c0,5.6-0.1,10.8-0.4,13.9l0,0.4l-0.3,0.3c-1.3,1.6-1.9,4.9-1.9,8.6 c0,7.4,2.2,16.1,2.2,16.1l0.1,0.3l-3.8,18.3l-0.7,0.3c-1.8,0.7-2.5,1.8-2.7,3.6l0,0.4c0,1.8,0.9,3.2,2.7,3.9l0.9,0.3v67l-0.4,0.4 c-1.9,2-3,2.5-3.2,4.1c-0.2,1.3-0.4,2.1-0.5,2.7c-0.2,0.4,0,0.8-0.6,1.2c0.1,3.4,0.2,11.3,0.2,28.3c0,0,0.3,8.7,0.5,12.4l0.4,0.3 c0.3,0.4,0.3,0.7,0.3,0.9c-0.3,1.6-2.1,4.4-4,8.3c-0.9,1.7-1.8,3.4-2.6,4.7c2.7-0.4,6.9-1.1,9.5-2.1l8.3-7.5l0.5,0 c6-0.1,13.5-12.7,18.5-16.6c5.1-4.2,2.8-18.6,5-30.4l0.1-0.5l0.3-0.2h0c0-0.1,0.1-0.4,0.3-0.7c0.2-0.6,0.6-1.4,0.9-2.4 c0.7-2,1.5-4.7,2.3-7.5c1.5-5.5,2.8-11.6,2.8-13.3v0C116.9,320.4,116.8,319.8,116.8,319.1 M849.7,380c0.7,1.2,1.4,2.9,1.4,5.2 c0,1.8-0.4,3.9-1.5,6.6c-2,4.5-0.7,5.8-9.2,47l-0.3,1.5l-1.4-0.4c-0.2-0.1-12.9-3.8-16.2-6.9c-18.9-18.4-23.8-19.4-31.8-19.5 c-1.5,0-3.2,0-5.1,0l-0.3,0l-1.1,0.1l-0.4-0.9c-0.2-0.5-0.2-0.9-0.2-1.3c0.1-6.4,10.6-30.4,12.5-40.7c0.9-4.3,1.5-22.3,1.5-34.5 c0-5.6-0.2-10.1-0.4-11.5v-0.2c0-1.8-2.2-17-5.7-31.6c-3.2-14.7-8.9-29.2-12.6-29.5l-1.2-0.3l0.2-1.2c1.1-8.5,3.4-20,3.4-24.5 c0-0.8,0-1.2-0.1-1.3c-5.2-9.9-15.8-29.7-21.8-32.4c0.2,1.8,0.4,3.3,0.4,4.8c0,3.4-1,6.7-4.2,13.5c-1.4,2.8-3.5,5.8-3.4,7.9l0,0.3 l0.1,0.4l-0.1,0.3v0.5c0,9.3,9.1,83.8,9.1,90.8v0.1l0.1,0.8l-0.7,0.4l-0.2,0.3c-0.2,0.2-0.5,0.6-0.7,1c-0.5,0.8-1,1.8-1,2.8l0,0.3 c-0.2,0.8,2.6,2.8,3.1,6.3c0.4,4.4,0.7,9.5,0.7,14.8c0,7.6-0.7,15.4-3.2,21.4c0.5,7.8,3.7,27.4,3.7,36.6c0,1.2,0,2.4-0.2,3.3l0,0.3 l-0.2,0.3c-1.2,1.8-1.8,1.9-3.2,2.8c0.2,1.5,0.6,3.6,0.6,7.1c0,4.7-0.7,11.9-3.4,23.2l-1.1,4.5l-1.6-4.3 c-7.8-21.3-20-34.1-30.3-42.3c-10.3-8.6-18.6-11.2-19.3-16.4c0.2-0.2,12.4-44.1,17.9-49.2c0.5-0.7,0.8-2.8,0.8-5.2 c0-3.3-0.5-7.3-0.9-9.8c-1-0.9-1.8-1.6-3-2.4l-0.6-0.4l0-0.8c0-0.7,0-12.1,0-26.7c0-27.7,0-67.6,0-71.7c-1.3-2.4-0.6-6.1-1.3-7.1 l0,0l-0.5-0.4l-1.7-15.2c-1.5-2.2-2.4-6.3-3-6.3l-0.6-0.4l0-0.7c0,0-0.1-3.8-0.1-7.5c0-1.7,0-3.3,0.1-4.7c-0.8-1.3-0.8-2.9-1.1-4.8 c-0.3-2.1-0.7-4.5-1-5.3l0-0.1l-0.6-0.4l0.1-0.8c0,0,0-0.4,0-1.2c0-2.3-0.3-7.5-1.7-10.4c-1.4-1.8-1-4.4-1.4-7.8 c-0.1-3-0.4-6.4-0.7-7.1l-0.4-0.3l-0.2-18.3c-2.9-2.9-3.7-4.6-3.7-6.1c0-0.6,0.1-1,0.1-1.1c0,0,0.1-0.6-2.9-2.8l-0.5-0.4l-0.1-0.6 c-0.5-4.3-0.8-10.4-0.8-16.5c0-6.1,0.3-12.2,0.8-16.5l0-0.5l0.3-0.3c5.9-5.7,22.2-13.9,33-29c-2.8-1-10.1-2.9-11.5-3.2 c-0.1,0.1-0.4,0.4-0.6,0.7c-0.5,0.6-1.2,1.7-2.6,2.1c-1.2,0.4-2.2,0.9-3.8,1c-1.1,0-2.2-0.3-3.5-1.1l-0.7-0.4l0-0.7 c-0.3-5.6-6.6-12.7-13.2-18.2c-6.1-5.2-11.7-8.8-13.6-10.3l-13-2.8l0.2-2.7l51.4-1.4c4.6-2.1,5.6-2.5,9-2.4c3.5-0.2,4.2,1.3,6,3.8 h18.7l0.2,0.4c0.2,0.1,0.5,0.2,0.9,0.3c0.8,0.3,1.9,0.7,3.3,1.2c2.7,0.9,6.3,2.1,9.9,3.2c7,2.2,13.9,4.3,13.9,4.3c0.9,0,2.1,0,3.4,0 c1.3,0,2.8,0,4.3,0.3c6.2,0.8,11.7,4.8,16.2,8.5c4.2,3.7,8.2,7.1,8.5,6.8h0.9l18.2,38.4c0.6,1.7,0.6,4.5,0.6,8 c0,6.6-0.5,14.7-0.5,14.7l-0.1,0.7l-0.5,0.4c0,0-0.9,1.7-1.3,3.5c-0.6,1.6-0.9,3.2-1.7,4.4c0.1,2,0.1,4.2,0.1,6.3 c0,4.6-0.1,8.6-0.1,8.9c-6.7,26.1-19,47.1-41.7,48c0,3.2,0.1,5.1,0.1,6.4c0,2.8-0.7,3.3-2.3,4.8c0.3,0,0.6,0,0.9,0 c2.7,0,4.9-1,7.9-1c4.2,0,8.8,2.4,16.5,11.6c5.1,2.3,3.8,8.6,4.6,11c0.2,0.9,0.4,1,0.6,1c2.7,1,4.2,1.6,5.3,2.2 c1,0.5,1.8,1.8,1.7,2.6c0,0.5-0.1,0.8,0,1.2c0,0.8,0.1,1.9,1.1,4.1c1.1,2.7,1.4,11,2.8,11.9c1.4,2.7,1.5,10.8,1.9,19.5 c0.2,8.3,1,17.4,1.5,17.5v0c0.9,0.8,0.7,1.6,1.1,2.6c0.2,1.2,0.4,2.5,0.7,3.8c0.5,2.8,1.6,4.5,2.3,4.4c0.2,0,0.7-0.1,1.5-0.6 l1.2-0.8l0.7,1.3c1.8,3.5,6.2,38.8,6.8,41.7l0.1,0.6l-0.3,0.5c-0.9,0.9-2.2,11.4-2.2,13.1c0.2,0.4,1.5,0.9,3.6,1.4l0.5,0.1l0.3,0.5 c1.4,2.3,4.6,9.3,4.8,13l0.2,0.5l-0.4,0.6c-1.2,1.7-1.4,2.6-1.4,3.6c0,1.9,1.4,5,1.4,11.9c0,4.3-0.5,10.1-2.2,18.5l0.2,0.2 C849,378.9,849.3,379.4,849.7,380 M784.8,125.4c0-3.8,0.8-7.7,0.8-7.8l0.4-1.7l0.8,0.4c0.2-0.3,0.3-0.7,0.5-1.2 c0.4-0.9,0.5-1.9,1.3-2.8l0-7.4c0,0,0.4-1.5,0.4-4.1c0-3.3-0.7-8.4-3.7-13.9c0-0.1-5.4-7.7-11.8-15.3c-6.3-7.7-14.3-15.2-17.3-14.9 c-0.8,0-1.5,0-2.2,0h-0.7v105c1,0.1,2.6,0.2,4.2,0.2c1.4,0,2.8-0.1,3.9-0.3c5.8-1,11.9-5.2,13.4-7.2c3.3-4,7.9-20.3,10.3-26.2 C784.8,127.3,784.8,126.4,784.8,125.4 M984.7,167.8c0,7.7-0.3,14.4-1.4,17.6l-0.2,0.4l-0.4,0.3c-1,0.3-2.7,6.5-4.9,9.2 c-0.1,0.8-0.1,1.7-0.1,2.6c0,4.2,0.6,9.3,0.6,14.1c0,4.3-0.4,8.4-2.3,11.9c-3.1,7.1-7,10.9-8.3,12.2l-2.3,17.5 c-3.3,8.6-1.3,10.3-2.6,12.9c0.2,3.3,2,30,2,50c0,8.8-0.3,16.2-1.4,20.4c-2.4,5.6-2.7,11.8-2.7,18.3c0,1.8,0,3.5,0,5.3 c0,6.7-0.3,13.8-3,20.4l-3.7,20c-3.1,8.6-3.2,10.5-7.4,15.5c-1.9,3.9-2.7,5-3.8,5.8c-1,0.7-1.2,0.4-2.9,2.4 c-1.6,4.1-8.8,5.3-17.2,7.9c-8.9,2.4-19,5-23.9,7.7c-0.4,0.1-0.7,0.1-1,0.1c-3.8-0.2-8.6-4.5-10.4-4.3l-0.2,0 c-1.5,2.7-5.4,3.3-10.1,4.4c-5,1-10.7,1.6-14.3,1.6c-1.6,0-2.6,0-3.7-0.5l-1.6-0.9l1.3-1.3c5.2-5.2,10.5-14,11.4-24.4 c0-0.5,0-1.2,0-1.8c0-8.2-4.2-19.4-4.2-19.4l-0.5-1.2l1.2-0.5c5.1-1.8,15.8-6.8,15-8.7c0-1.1-0.2-1.5-0.3-1.6l-0.1,0l-0.4,0 c-0.7,0-2.1,0-2.8-1.6l-4.1-10.2l-7.2-16.7l6.6-65c-8.2-8.9-15.8-34.5-16-37v-10.6c0.3-3.1-3.2-3.5-3.5-8.5c0,0-0.9-12.8-0.9-22.5 c0-4.2,0.1-7.6,0.6-9.8c-0.9-0.8-1.6-1.4-2.7-2.2l-0.7-0.4l1.5-24.8c-0.8-1.4-0.8-3.3-1.3-5.6c-0.4-2.6-0.8-5.4-1.2-6.5l0.1-0.1 l-0.6-0.4V87.3l0.6-0.4c1.1-0.8,1.9-1.5,2.9-2.4V56.6l0.6-0.4c1.1-0.8,1.9-1.5,2.9-2.4V33.9c-3.7-3.5-30.4-28.9-31.7-30.5l-1.8-2.2 H843l0.4,0.7c0.7,1.3,1.3,2.1,2.1,3.2h12l0.2,1.1c-0.2,3.5,16.9,5.6,25,14.2h11.7l0.4,0.7c1.2,2.1,2.3,3.1,3.9,5.1h11.7l0.4,0.7 c0.7,1.3,1.3,2.1,2.1,3.1h15.2l0.4,0.7c0.7,1.3,1.3,2.1,2.1,3.2h16.5l0.4,0.7c5.3,8.7,15.7,14.3,17.8,18.4 c12.1,25.3,9.6,27.6,13.8,30.2l0.6,0.4l-1,36.7c0.9,1.4,1.2,3.4,2,5.8c0.7,2.6,1.6,5.5,2,6.1l0.4,0.3l0.1,0.7 C983.4,133,984.7,152.4,984.7,167.8 M930.9,228.1c0-9.9,5.1-14.1,7-15.3c0.6-3.7,3.2-20.9,8.4-25.6v-35.2c-2.6-2.3-3.7-7.1-5-11.9 c-1.2-5.1-2.3-10.6-2.7-11c-4.1-6.1-12.7-8.2-13.5-17.7c-8.5-0.9-9.6-8.2-12.9-7.6c-6.8,0-10.2-0.5-15.4-0.5c-1.6,0-3.4,0-5.4,0.2 l-1.4,13.3l1,4.6c0,0,1.5,38.6,1.5,53.1c0,1.3,0,2.3,0,3.1l0.1,0.1c0.4,0.7,0.8,1.6,1.2,2.4c0.8,1.8,1.5,3.4,1.5,3.4l0.1,0.3v0.3 c-0.3,4.3,4.3,21.4,6.4,21.8l0.7,0.4l-0.5,169.6c5.3-6.4,17.1-22.8,17-39.3c0-0.6,0-1.2,0-2.2c4-13.6,8.4-18.1,9.7-25.9l0-0.3 c0.1-4.2-0.1-69.7,2.5-78.3C930.9,229.3,930.9,228.7,930.9,228.1 M327.9,374.7l-2.2-0.9c-2.5-1-3.8-1.1-5.2-1.1 c-0.7,0-1.5,0.1-2.4,0.1h-0.7l-0.3-0.4l-0.4-0.1c-0.8,0-2.5,0.3-5.4,1.8l-0.7,0.4l-0.7-0.5c-1-0.8-7.1-1.5-13.9-1.5 c-10.6,0-23.9,1.2-27.4,2.7c-5,4.9-6.4,6.1-8.3,6.3h-0.1c-0.8,0-1.4-0.5-1.5-0.6v0l0,0l0,0c-2.3-0.7-2.4-2.5-4.9-4l-1.2-0.9l0.9-1.1 c10.2-12.8,4.5-8.9,16.3-16.8c2.8-8.4,3.1-37.3,3-46v-3.3l0.6-0.4c3.2-2.4,3.1-2.4,3.1-3.3c0-0.6-0.1-1.7-0.2-3.3 c0.3-2.6-3.4-4.7-3.5-11.5c0.1-4.8,1.6-11.7,4.7-15.1l-1.2-151.6l0.5-0.4c1.1-0.9,2-1.5,2.6-1.8c0.3-0.2,0.4-0.3,0.5-0.3l0-0.4 c0.1-0.6-0.9-0.8-2.9-1.9l-0.6-0.4l-4.6-77.1c-0.9-3.4-3.9-4.5-7.5-5.5c-2.9-0.9-6.6-1.7-7.5-5c-3.3,0-4.7-0.2-5.8-1.5 c-1-1.1-1.1-2.1-4.5-4.5l-1.2-0.8l0.9-1.1c1.3-1.7,3-3.9,3.5-4.6l0.5-1l1,0.3c3.6,1,20,1.7,35.5,1.7c14.2,0,28.3-0.6,31-1.7l1-0.4 l0.6,1c1.3,2.2,2.5,3.3,4.3,5.6L324,24v7.3l-1,0.3c-8.7,2.3-18,10.3-17.8,17c0.1,5.3,0.7,4.9,1.1,5.2c1,0.4,2.8,2,2.5,6.3 c0.1,3.4-1.8,5.3-3.2,6.3c-1.4,1.2-2.1,1.5-2.1,3.3c0,11.4,1.6,42.2,1.6,68.2c0,12.6-0.4,24.2-1.5,32c1.2,1.2,1.2,3,1.6,4.9 c0.4,2.2,0.7,4.7,1.1,5.6l0.1,0.2l0.5,0.3l1.9,11.3l-0.7,0.5c-1.4,1-2.2,1.5-3.3,2.7c-2,2.2-2.6,5.4-2.6,8.7c0,3.4,0.6,6.5,0.6,8.5 c0,1-0.4,1.8-0.4,4.1c0,1.9,0.2,4.8,1.2,9.2c0.4,2.3,0,7.1,0.5,9.6c0.1,0.8,0.3,1,0.4,1l0.6,0.3l0.1,0.7c0.4,2.3,0.5,4.7,0.5,6.9 c0,4.4-0.4,7.9-0.5,7.9l-0.1,0.6l-0.5,0.4c-1.4,0.9-2.1,1.5-3.3,2.7c-2.4,2.5-3,4.3-3,6.3c-0.1,4.2,3.4,10.1,3.4,20.4v1.4 c0.3,2,3.8,12.1,4.9,13.4l0.6,0.4l-1.9,27l-0.6,0.4c-1.5,1-2.3,1.4-3.2,2.6c-1.1,1.4-1.5,2.7-1.5,4.2c0,2.2,1,4.9,1.8,8.1 c2.9,12.1,1.9,5.3,24.1,21.3l0.5,0.3L327.9,374.7z M453.7,452H404l-0.4-0.7c-0.7-1.2-1.4-2.1-2.2-3.1h-11.6l-0.4-0.7 c-2.1-3.3-2.9-3.4-3.6-3.4c-0.5,0-1.2,0.2-2.1,0.2c-1.8,0-3.8-0.9-6.2-3.8h-34.1c-5.6-0.3-7-3.5-8-5.1c-7.1-0.6-51.4-0.7-74.8-0.7 h-14.7h-0.8l-0.4-0.6c-1.2-2.6-10.1-5.3-10.4-5.1h-12.9c-2.6,1.7-20.7,13.5-22.2,18.3l-0.4,1.1l-1.1-0.2c0,0-11.4-1.9-21-1.9 c-4.8,0-9.1,0.5-10.9,1.7l-1.2,0.8l-0.7-1.2c-0.8-1.4-1.5-2.2-3.1-3.4l-1.2-0.9l0.9-1.1c2.5-3.3,2.3-1.4,3.3-6.1l0.1-0.7l10.4-5.5 c4.1-4,3.5-2.3,12.5-10.5v-16.5l0.6-0.4c0.9-0.5,3-1.8,3-3.6c0-1.5-1-2.3-3-3.7l-0.6-0.4v-29.2l0.6-0.4c1.1-0.8,1.9-1.5,3-2.4v-12.5 l0.6-0.4c3.3-2.4,3.1-2.2,3.1-2.9c0-0.5-0.1-1.4-0.1-2.7c0-4.6-3.4-7.3-6.5-9.5l-0.6-0.4l-0.1-48.8l0.9-0.4c2.4-1.1,1.6-0.7,2.8-2.7 c-0.6-4.6-0.8-9-0.8-12.7c0-7.8,0.9-13.1,0.9-13.1l0.1-0.6l0.5-0.3c1.1-0.8,1.9-1.5,2.9-2.3v-38.5l0.6-0.4c0.8-0.4,4.1-5,3.9-8.4 v-0.6c-0.2-2.9-2.9-6.4-3.9-7l-0.6-0.4v-53.9c-1-0.9-1.8-1.6-2.9-2.4l-0.6-0.4v-29.3l0.6-0.4c2.8-1.9,3.9-3.8,6.6-6.2 c0.2-2,0.7-9.6,0.7-16.3c0-3.7-0.2-7.2-0.7-9.2c-1.1-1-1.8-1.6-3.1-2.4l-1.2-0.9l0.9-1.1c1.5-1.9,6-13.6,5.9-17v-0.3 c-0.8-9.9-6-19.6-6.1-19.8c-0.1-1.3-4.3-2.2-7.1-2.1c-0.6,0-1,0-1.4,0l-0.3,0.6l-1.2-0.7c-4.2-3.1,1.4-5.2-17.9-19.3l-1.2-0.9 l0.9-1.1c2.5-3.2,2.3-1.4,3.3-6.1l0.2-1.1h6.3l0.4,0.7c0.7,1.3,1.3,2.1,2.1,3.1h28.5l0.4,0.7c4.1,6.6,6.6,7.4,8.2,7.4 c1.2,0,2.2-0.6,3.8-0.6c0.5,0,1.2,0.1,2.1,0.8c0,0,11.1,13.7,15.7,17l0.6,0.4v36l-0.6,0.4c-2.6,2-2.9,2-3,4.6v0.2l0,0.1 c0,0.2,0.3,2.7,6.6,7.2l0.6,0.4V103l-0.6,0.4c-1.2,0.8-1.9,1.4-2.9,2.3v75.6c3.2,2.8,5,3,6.9,6.7c1.7,3.5,2,12.8,2.1,24.3 c0,22.8-1.9,53.2-1.9,53.2l-0.1,0.7l-0.5,0.4c-1.2,0.8-1.9,1.4-3,2.3v25.6c1.1,0.9,2,1.7,3,2.4l0.5,0.3l0.1,0.6c0.3,1.4,0.3,4,0.3,7 c0,6-0.3,13.4-0.3,13.4l-0.1,1.1l-1.1,0.2c-4.4,0.7-4,3.6-5.8,9c2.7,3.8,3.5,3.2,3.4,6.7v1.1c0.3,4.3-0.7,4.9-3.5,7.3v16.4l-0.6,0.4 c-1.2,0.8-2,1.4-3,2.3v24.1l-0.6,0.4c-2.3,1.7-2.2,2.4-3,5c-0.2,0.6-0.3,1-0.3,1.2c-1,0.2,3.7,0.3,3.9,10.5 c6.5,0.1,11.3,0.9,17.4,0.9c3.1,0,6.5-0.2,10.6-0.8c2.9-4.5,4.4-5,10.2-8.7c0.5-0.1,1.1-0.2,1.6-0.2c6.1,0.1,16.9,5.5,29,5.5 c5.7,0,11.6-1.2,17.3-4.8c0.8-2.2,3-2.3,5.9-3.1c3.3-0.6,7.8-1.1,13.3-1.5c10.9-0.7,25.6-0.9,40.4-0.9c31.6,0,64.3,1.1,64.4,1.1 l1.3,0v45.4l0,0c0.1,0.2,0.3,0.6,0.4,1c0.4,0.9,0.9,2,1.6,3.3c1.3,2.6,3.1,5.9,4.8,8.5L453.7,452z M1000,24.6 c0,4.4-2.2,10.4-16.9,10.4c-14.8,0-17.1-6-17.1-10.4V10.4c0-4.3,2.3-10.4,17.1-10.4c14.7,0,16.9,6.1,16.9,10.4V24.6z M997,10.2 c0-3.4-2.3-7.4-13.9-7.4c-11.7,0-14.1,4-14.1,7.4v14.7c0,3.4,2.4,7.5,14.1,7.5c11.6,0,13.9-4,13.9-7.4V10.2z M978.7,20.5v7.2 c0,0.4-0.1,0.7-0.6,0.7h-1.8c-0.5,0-0.7-0.3-0.7-0.7V7.9c0-0.5,0.1-0.7,0.7-0.7h7.6c6.1,0,7.6,2.9,7.6,5.7v1.9c0,2.1-1,4.3-4.1,5.3 l3.3,7.6c0.1,0.4-0.2,0.7-0.7,0.7h-1.9c-0.4,0-0.5-0.3-0.7-0.7l-3.1-7.2h-0.6H978.7z M978.7,9.6v8.5h4.9c3.5,0,4.9-1.7,4.9-3.5v-1.6 c0-1.8-1.4-3.5-4.9-3.5H978.7z"></path> </svg> 