<?xml version="1.0" encoding="UTF-8"?>
<svg enable-background="new 0 0 667 108" version="1.1" viewBox="0 0 667 108" xml:space="preserve" xmlns="http://www.w3.org/2000/svg">


<path d="m101.5 61.5c0.1-1.4 0.2-1.5 4.9-2l4.6-0.5 0.2-1.1c0.2-1.3 0.2-26.7 0-41.9l-0.2-10.7-1.2-0.4c-0.7-0.2-2.7-0.5-4.5-0.6-3.3-0.2-3.7-0.4-3.7-1.5 0-0.4 0.8-0.5 12.6-0.5 18.7 0 24.1 0.6 29.2 3.2 3.8 1.9 6.3 5.3 6.6 8.8 0.3 3.1-1.1 7.8-3.2 10.9-3.1 4.5-9.6 8.7-16.3 10.4-3.9 1-4.5 1.1-4.5 0.5 0-1.4 0.3-1.6 2.9-2.7 3.2-1.3 5.4-2.7 7.1-4.5 2.8-3.1 3.9-6.5 3.7-11.5-0.1-2.9-0.2-3.3-1-5-2.2-4.6-6.7-7-14-7.5l-3-0.2-0.4 1.3c-0.3 1.4-0.2 43.7 0.1 49.2 0.2 3.4 0.2 3.6 0.8 3.8 0.3 0.1 2.7 0.4 5.2 0.6 2.6 0.2 4.8 0.5 5 0.5s0.3 0.4 0.3 0.8v0.7h-12.3c-6.8 0-13.8 0.1-15.6 0.2-2.7 0.1-3.3 0.1-3.3-0.3z"/>
<path d="m203.3 61.2c0-0.3 0.1-0.7 0.2-0.9s1.6-0.4 3.4-0.6 3.8-0.5 4.5-0.7c1.3-0.3 1.3-0.3 1.5-1.7 0.4-2.9 0.1-50.9-0.3-51.6-0.1-0.2-2.1-0.5-4.5-0.9-2.4-0.3-4.4-0.6-4.4-0.6l-0.2-0.8-0.2-0.7h12.7c7 0 13.6-0.1 14.8-0.2l2.1-0.2-0.2 0.8c-0.1 0.4-0.3 0.9-0.4 1s-2.1 0.4-4.5 0.7-4.4 0.6-4.5 0.7c-0.3 0.3-0.4 37.9-0.1 46.3l0.2 6.8 1.4 0.3c0.7 0.2 2.8 0.5 4.5 0.6s3.1 0.3 3.2 0.3 0.2 0.4 0.2 0.8l0.2 0.7-14.1 0.1c-7.8 0-14.4 0.1-14.7 0.2-0.7 0.2-0.8 0.1-0.8-0.4z"/>
<path d="m340 62.5c-4.7-3.8-13.1-12.8-23.8-25.5-1.2-1.4-2.2-2.5-2.4-2.5-0.9 0-11.9 16.8-15 22.8l-0.8 1.7 2.7 0.4c1.5 0.2 3 0.5 3.5 0.6 0.8 0.1 1.2 0.5 1.2 1.3 0 0.2-2.8 0.3-11.1 0.4h-11.1l0.2-0.6c0.3-0.9 0.7-1.2 2.8-1.5 2.8-0.4 3.6-0.9 5.9-3.4 2.8-3 16.4-20.2 19.3-24.3 0.2-0.3-0.3-1-1.7-2.6-1.1-1.3-4.8-6.1-8.3-10.9-3.5-4.7-7.3-9.6-8.3-10.8-1.8-2.1-2-2.2-3.7-2.6-1-0.3-2.2-0.5-2.8-0.5-0.9 0-1-0.1-1-0.7 0-0.4 0-0.7-0.1-0.8 0-0.1 5.9-0.2 13.2-0.3 12.4-0.1 13.3-0.1 13.3 0.3 0 0.9-0.4 1.1-3.3 1.5-1.6 0.2-3.2 0.5-3.6 0.6l-0.8 0.2 1.9 2.9c3.7 5.7 11.2 16.1 11.6 16.1 0.6 0 10.2-13.6 12.5-17.7 0.8-1.5 0.8-1.5-2.8-2.1-2.5-0.4-2.6-0.5-2.8-1.2-0.1-0.4-0.1-0.7-0.1-0.7s4.6-0.1 10.1-0.1l10-0.1-0.2 0.8c-0.1 0.5-0.2 0.8-0.2 0.9 0 0-1.3 0.3-2.7 0.6-2.6 0.5-2.7 0.6-4.2 2-1.7 1.7-8.9 9.8-14.2 16l-3.6 4.2 2.1 2.7c2.1 2.7 3 4 12.9 17.9 4.2 5.9 10.5 14.5 11.7 16 0.2 0.3-0.3 0.3-2.3 0.3h-2.6l-1.4-1.3z"/>
<path d="m559.6 61.9c-4.6-3.4-14.3-13.1-24-23.9l-3.9-4.3-3.9 0.2c-2.2 0.1-4 0.3-4.2 0.4-0.3 0.2 0.1 23.5 0.4 23.9s1.8 0.7 5.6 1.1c3.2 0.3 3.3 0.4 3.5 1 0.1 0.4 0.1 0.7 0.1 0.8s-6.6 0.1-14.5 0.2l-14.5 0.1c0-0.5 0-1 0.3-1.4 0.2-0.1 2.2-0.5 4.5-0.7 2.3-0.3 4.3-0.6 4.4-0.8s0.3-1.4 0.4-2.6c0.2-2.6-0.1-48.5-0.3-49.8-0.2-1-1.1-1.3-4.6-1.5-4.6-0.3-4.8-0.3-4.8-1.2v-1h9.8c27.4 0 33.5 1 37.8 5.7 2.7 3 3 6.9 0.8 11.3-1.6 3.3-5.8 7.7-9.2 9.7l-1.4 0.8 1 1.7c1.4 2.4 9.2 14 12.4 18.5s4.9 6.7 8 10.2l2.3 2.6-1.7 0.3c-0.9 0.2-1.8 0.3-1.9 0.3-0.2 0-1.2-0.7-2.4-1.6zm-28.8-31.3c3.8-0.8 6.3-2 8.7-4.4 2.2-2.2 3.2-4 3.8-7 1.3-6.3-2.8-11.5-10.7-13.5-3-0.8-8.4-1.3-8.9-0.8-0.2 0.2-0.4 3.6-0.4 13.5l-0.1 13.2 2.4-0.2c1.5-0.2 3.7-0.5 5.2-0.8z"/>
<path d="m387.7 60.8c0.1-1-0.1-0.9 4.4-1.6l3.1-0.5 1-1.9c1.9-3.7 6-13.7 14.3-35.2 3.4-8.8 6.1-16.3 6-16.4s-1.3-0.3-2.8-0.5c-4.1-0.6-3.9-0.6-3.9-1.4v-0.7l13-0.1c12-0.1 13-0.1 12.8 0.4-0.1 0.2-0.2 0.6-0.2 0.8s-1.1 0.5-3.1 0.8c-1.7 0.3-3.2 0.6-3.3 0.7s1.3 4.4 3.1 9.5c6.5 18.5 12.1 32.7 15.8 40.6l1.6 3.3 1.3 0.3c1.3 0.3 4.9 0.8 5.9 0.8 0.3 0 0.5 0.3 0.6 0.8l0.1 0.8-14.3 0.1c-7.9 0.1-14.4 0.1-14.4 0.1s0-0.4 0.1-0.9l0.1-0.8 3.7-0.5c4.7-0.6 5-0.7 4.8-1.2-0.3-0.7-2.7-7.4-4.4-12.3-0.8-2.5-2.2-6.1-2.9-8.1l-1.4-3.6h-1.5c-4.3 0-18.2 0.9-18.5 1.2-0.6 0.6-4.4 14.4-5.4 19.6-0.4 2-0.7 3.6-0.7 3.7 0 0.2 1.3 0.5 4.4 0.9 3.1 0.5 3.1 0.5 3.2 1.2l0.1 0.7h-10c-5.5 0-10.7 0.1-11.4 0.2l-1.4 0.2 0.2-1zm40.2-29.9c-0.1-0.4-0.4-1-0.7-1.5-0.4-0.8-3.9-10.9-6.6-19.1-0.7-2-1.3-3.7-1.3-3.8-0.3-0.3-9.2 23.3-9.2 24.5 0 0.1 3.1 0.3 6.9 0.3s7.8 0.1 9 0.1l2.1 0.1-0.2-0.6z"/>
<path d="m1.4 104.8c0-0.1 0.1-0.2 0.9-0.3 1.3-0.2 1.2-0.1 1.5-1 0.5-1.1 1.2-3 2.3-5.8 1.1-2.9 3.3-8.8 3.3-8.9s-0.2-0.1-0.9-0.2c-0.5-0.1-0.9-0.2-0.9-0.2v-0.2-0.2h6.4v0.2c0 0.1-0.1 0.2-0.9 0.3-0.5 0.1-0.9 0.2-0.9 0.2s0.2 0.8 0.5 1.6c1.5 4.7 3.7 10.6 5 13.3l0.3 0.6 0.3 0.1c0.2 0 0.7 0.1 1 0.2 0.6 0.1 0.7 0.1 0.7 0.3v0.2h-3.5c-1.9 0-3.5 0-3.5-0.1 0-0.2 0.1-0.3 0.6-0.3 0.6-0.1 1.7-0.2 1.8-0.3 0.1 0-0.1-0.5-0.5-1.7-0.7-1.9-1.5-4.3-1.8-5.1l-0.1-0.4h-1.4c-1.4 0-3.1 0.1-3.9 0.2h-0.5l-0.3 1c-0.9 2.9-1.7 5.8-1.5 6 0.1 0.1 1.3 0.3 1.5 0.3 0.1 0 0.2 0 0.2 0.2 0 0.1 0.1 0.2 0.1 0.2h-2.9-2.9v-0.2zm11.4-8.3c0-0.1-1.6-4.8-2.2-6.3l-0.4-1.1-0.1 0.2c-0.2 0.3-0.7 1.8-1.5 3.8-0.9 2.5-1.1 3.1-1.1 3.2 0 0 0.9 0.1 2 0.1s2.3 0 2.6 0c0.5 0.1 0.7 0.1 0.7 0.1z"/>
<path d="m57.5 102.1c-3.5-4.4-9.2-11.4-9.5-11.6l-0.1-0.1v3.2c0.1 6.7 0.2 10.7 0.3 10.8 0.1 0 0.8 0.1 1.9 0.2 0.4 0 0.8 0.1 0.8 0.1v0.2 0.1h-3.2c-2.6 0-3.2 0-3.2-0.1v-0.2s0.3-0.1 0.8-0.2c1-0.1 1.2-0.2 1.3-0.3 0.1-0.4 0.3-5.2 0.5-11.9v-2.8c-0.1 0-0.4-0.1-1.6-0.2-0.5 0-0.9-0.1-0.9-0.1s0-0.1-0.1-0.2v-0.2h1.4c0.7 0 1.8-0.1 2.3-0.1h1l0.4 0.6c1.1 1.6 3.9 5.1 7.5 9.6 1.4 1.7 2.6 3.2 2.7 3.4l0.3 0.3v-1.4c0-3-0.1-10.9-0.3-11.7 0-0.2 0-0.2-0.4-0.3-0.2 0-0.8-0.1-1.3-0.2s-0.9-0.1-0.9-0.1v-0.2-0.1h3.1c3 0 3.1 0 3 0.1 0 0.1-0.1 0.1-0.1 0.2s-0.4 0.1-0.9 0.2-0.9 0.2-0.9 0.2-0.2 1.5-0.2 2.6c-0.1 1.3-0.2 4.3-0.2 9.7 0 2.3-0.1 4.2-0.1 4.4 0 0.3-0.1 0.2-3.4-3.9z"/>
<path d="m344.5 102.1c-3.5-4.4-9.3-11.5-9.6-11.8l-0.2-0.2v3.2c0.1 6.8 0.2 10.8 0.3 10.9s0.8 0.1 1.9 0.2c0.4 0 0.8 0.1 0.8 0.1v0.2 0.2h-3.2c-2.7 0-3.2 0-3.2-0.1v-0.2c0-0.1 0.3-0.1 0.8-0.2 1-0.1 1.2-0.2 1.3-0.3 0.1-0.4 0.3-5.3 0.5-12v-2.8c-0.1 0-0.4-0.1-1.6-0.2-0.5 0-0.9-0.1-0.9-0.1s0-0.1-0.1-0.2v-0.2h1.4c0.8 0 1.8-0.1 2.3-0.1h1l0.5 0.6c1.2 1.6 3.9 5.1 7.6 9.7 1.4 1.7 2.6 3.3 2.8 3.5l0.3 0.3v-1.4c0-3-0.1-11.1-0.3-11.8 0-0.2 0-0.2-0.4-0.3-0.2 0-0.8-0.1-1.3-0.2s-0.9-0.1-0.9-0.1v-0.2-0.2h3.1c3.1 0 3.1 0 3.1 0.1s-0.1 0.1-0.1 0.2c0 0-0.4 0.1-0.9 0.2s-0.9 0.2-0.9 0.2-0.2 1.5-0.2 2.7c-0.1 1.4-0.2 4.4-0.2 9.8 0 2.3-0.1 4.3-0.1 4.4-0.2 0.4-0.3 0.3-3.6-3.9z"/>
<path d="m89.9 105s0-0.1 0.1-0.2c0-0.1 0.1-0.2 0.3-0.2 0.3 0 2.1-0.3 2.1-0.3 0.2-0.2 0.2-14.7 0-14.8 0 0-0.5-0.1-2.1-0.3-0.3 0-0.3-0.1-0.4-0.2v-0.1h3.5c3.5 0 3.5 0 3.4 0.1 0 0.1-0.1 0.1-0.1 0.2s-0.6 0.1-1.2 0.2l-1.2 0.2v0.3c-0.1 0.4-0.1 13.5 0 14.1 0.1 0.5-0.1 0.5 1.4 0.7 1.1 0.1 1.1 0.2 1.2 0.4h-3.5c-2-0.1-3.5-0.1-3.5-0.1z"/>
<path d="m123.8 105v-0.2c0-0.1 0.2-0.1 0.7-0.2 1.1-0.2 1.1-0.2 1.2-0.4 0.3-1.1 1-14.4 1-14.7 0-0.1-0.4-0.1-1.3-0.3-0.4-0.1-0.7-0.1-0.7-0.1v-0.2-0.2h3c2.5 0 3 0 2.9 0.1v0.2s-0.3 0.1-0.7 0.2l-0.8 0.2c-0.1 0 0 0.3 0.2 0.9 0.9 2.6 4.8 11 5 11.1h0.1c0.1-0.1 5.8-11.9 5.8-12l-1-0.2c-0.6-0.1-0.7-0.1-0.7-0.3 0-0.1 0.3-0.1 2.8-0.1 2.3 0 2.8 0 2.7 0.1v0.2c0 0.1-0.2 0.1-0.7 0.2-0.4 0.1-0.8 0.1-0.9 0.2l-0.2 0.1-0.2 0.4c0.4 1.9 0.3 13.2 0.6 14.3 0.1 0.3 0.1 0.3 1.1 0.4 0.6 0.1 0.8 0.2 0.8 0.4 0 0-1 0.1-3.2 0.1h-3.2v-0.2c0-0.2 0-0.2 0.5-0.2 0.7-0.1 2-0.2 2-0.3 0.1-0.1 0-1.1-0.1-4.2-0.1-2.4 0-9 0-9.3l-0.1-0.2-0.2 0.4c-0.3 0.6-1.9 3.3-3.8 7.3-1.9 4.1-2.6 5.9-2.8 6.2l-0.1 0.2-0.1-0.1c-0.1-0.2-2.1-5.4-4.1-10.4-0.9-2.1-2-3.8-2-3.9-0.1-0.1 0.1 0 0.1 3.1 0 3.3-0.2 5.2-0.2 7.5 0 1.4-0.2 3.2-0.1 3.3 0 0 0.6 0.1 1.3 0.2 1.2 0.1 1.2 0.2 1.2 0.3v0.2h-3c-2.3 0-2.9 0-2.8-0.1z"/>
<path d="m407.6 107c0.2-1.5 0.3-3 0.4-5.2v-1.9l0.4 0.2v0.8c0.1 1.3 0.1 1.5 0.3 1.9 0.3 0.5 1 1.2 1.5 1.5 0.7 0.4 1.2 0.5 2 0.5s1.2-0.1 1.9-0.4c1.3-0.7 2-2.2 1.6-3.7-0.3-1.1-0.8-1.7-2.8-3-1.8-1.2-2.4-1.7-3-2.3-1.2-1.3-1.5-2.9-0.8-4.4 0.4-0.8 1-1.4 1.8-1.8s1.3-0.5 2.4-0.5 1.9 0.1 2.6 0.4c0.2 0.1 0.4 0.2 0.5 0.2s0.1-0.1 0.3-1l0.2-1h0.2 0.2s0 0.4-0.1 0.9c-0.2 1.5-0.4 3.2-0.4 4.2 0 0.9 0 1-0.1 0.9-0.4-0.1-0.3 0-0.4-1 0-1.1-0.1-1.4-0.8-2-0.5-0.5-1-0.8-1.6-0.9-0.5-0.1-1.6-0.1-2 0.1-1.3 0.4-2 1.4-1.9 2.6 0.1 1.1 0.6 1.7 3.3 3.4 1.4 0.9 2 1.4 2.6 2 0.7 0.8 1.1 1.5 1.3 2.4 0.1 0.6 0 1.7-0.1 2.3-0.6 1.8-2.1 3-4.2 3.4-1.1 0.2-2.8 0-3.9-0.3-0.3-0.1-0.5-0.1-0.5-0.1s-0.1 0.5-0.2 1.1c-0.3 1.4-0.3 1.3-0.4 1.3-0.3-0.3-0.4-0.3-0.3-0.6z"/>
<path d="m294.7 105.4c-2.2-0.3-3.8-1-5.2-2.4-1.2-1.2-1.9-2.5-2.2-4-0.2-0.9-0.1-2.5 0-3.3 0.4-1.8 1.1-3.2 2.4-4.4 2.2-2.2 4.9-3.1 8.4-2.8 1.4 0.1 2.5 0.4 3.6 1 2.3 1.1 3.7 3 4.2 5.4 0.1 0.6 0.1 2 0 2.8-0.6 4.4-3.9 7.4-8.4 7.9-0.7-0.1-2-0.1-2.8-0.2zm4-1c2.9-0.5 4.9-2.4 5.5-5.4 0.2-0.8 0.2-2.4 0-3.2-0.7-3.3-3.2-5.8-6.5-6.6-0.8-0.2-2.5-0.2-3.4 0-3.5 0.8-5.6 3.3-5.6 6.9 0 3 1.9 6 4.7 7.4 1.7 1 3.4 1.2 5.3 0.9z"/>
<path d="m530.4 105.1s0-0.1 0.1-0.2 0.1-0.1 0.6-0.2c0.8-0.1 1.7-0.2 1.8-0.3 0.2-0.2 0.3-14.6 0-14.8-0.1-0.1-1.2-0.2-2-0.3-0.4 0-0.5-0.1-0.5-0.3 0-0.1 0.6-0.1 5.3-0.1 5.5 0 5.6 0 7.2 0.3 2 0.3 3.3 0.9 4.5 2.1 0.6 0.6 0.9 1 1.3 1.7 0.5 1 0.6 2 0.5 3.3-0.3 3.3-2.2 5.9-5.3 7.4-1.7 0.8-3.4 1.2-5.7 1.4h-7.8zm8.9-0.8c2.3-0.2 4.5-1.2 6-2.7 0.9-0.9 1.5-2 1.9-3.2 0.1-0.5 0.2-0.7 0.2-1.8s0-1.2-0.2-1.8c-0.2-0.7-0.6-1.6-1-2.2-1.6-2.1-4.4-3.1-8.8-3.1h-1.9-0.5v0.2c0 0.1-0.1 1.8-0.1 3.8-0.1 2.7-0.1 4.3 0 6.7 0 1.7 0.1 3.3 0.1 3.4 0 0.3 0.1 0.3 1 0.4 1 0.4 2.1 0.4 3.3 0.3z"/>
<path d="m214.9 104.5v-0.1s0.6-0.1 1.4-0.2 1.4-0.2 1.4-0.2 0.1-0.7 0.1-1.6v-11.8-0.9h-1.3c-1.8 0-3.2 0.1-4.2 0.4-0.6 0.2-0.8 0.3-0.8 0.4s-0.1 0.4-0.2 0.8c-0.2 1.3-0.2 1.3-0.4 1.4-0.1 0-0.2 0.1-0.2 0s0-0.5 0.1-1.2c0.1-1.5 0.2-3 0.2-3.7v-0.6h0.2 0.2v0.5c0 0.3 0.1 0.6 0.1 0.7v0.2h0.5c3 0.2 11.8 0.2 14.1 0h0.4l0.1-0.5c0.1-0.3 0.1-0.6 0.1-0.7s0-0.2 0.1-0.2c0.2-0.1 0.3 0 0.3 0.1-0.1 0.2-0.3 1.8-0.5 3.6-0.1 1-0.2 1.8-0.2 1.8h-0.2-0.2v-1.3-1.3l-0.4-0.1c-0.8-0.3-2.9-0.5-4.8-0.6h-1.2v1c-0.1 1.3-0.1 9.2 0 11.6v1.8h0.2c0.1 0 0.7 0.1 1.4 0.2s1.3 0.1 1.3 0.1v0.2 0.1h-7.8l0.2 0.1z"/>
<path d="m494.3 104.7c-2.3-0.4-3.9-1.7-4.7-3.9-0.4-1.1-0.4-1.1-0.4-6.2 0-2.6-0.1-4.8-0.1-4.9 0-0.2-0.1-0.2-1.1-0.4-0.6-0.1-0.7-0.1-0.7-0.3 0-0.1 0.4-0.1 3-0.1s3 0 3 0.1v0.1l-2.4 0.4c-0.1 0.1-0.1 4.1-0.1 6.3 0 2.6 0.1 3.1 0.4 4.2 0.6 2.4 2.1 3.7 4.2 3.9 1.2 0.1 2.3-0.1 3.2-0.5 1-0.5 1.8-1.5 2.1-2.9 0.2-0.7 0.2-1.2 0.2-2.8 0-1.5-0.1-8.2-0.1-8.2s-1.4-0.2-2-0.3c-0.4 0-0.4-0.1-0.5-0.2l-0.1-0.2h5.8l-0.1 0.2c0 0.1-0.1 0.2-0.8 0.3l-0.8 0.2c-0.1 0.1-0.1 3-0.1 5.4 0 2.6 0 3.5-0.2 4.5-0.6 3-2.5 4.8-5.4 5.1-0.6 0.3-1.7 0.3-2.3 0.2z"/>
<path d="m170.3 104.8c0-0.1 0.1-0.2 0.9-0.3 1.3-0.2 1.2-0.1 1.5-1 0.5-1.1 1.2-3 2.3-5.8 1.1-2.9 3.3-8.8 3.3-8.9s-0.2-0.1-0.9-0.2c-0.5-0.1-0.9-0.2-0.9-0.2v-0.2-0.2h6.4v0.2c0 0.1-0.1 0.2-0.9 0.3-0.5 0.1-0.9 0.2-0.9 0.2s0.2 0.8 0.5 1.6c1.5 4.7 3.7 10.6 5 13.3l0.3 0.6 0.3 0.1c0.2 0 0.7 0.1 1 0.2 0.6 0.1 0.7 0.1 0.7 0.3v0.2h-3.5c-1.9 0-3.5 0-3.5-0.1 0-0.2 0.1-0.3 0.6-0.3 0.6-0.1 1.7-0.2 1.8-0.3 0.1 0-0.1-0.5-0.5-1.7-0.7-1.9-1.5-4.3-1.8-5.1l-0.2-0.5h-1.4c-1.4 0-3.1 0.1-3.9 0.2h-0.5l-0.3 1c-0.9 2.9-1.7 5.8-1.5 6 0.1 0.1 1.3 0.3 1.5 0.3 0.1 0 0.2 0 0.2 0.2 0 0.1 0.1 0.2 0.1 0.2h-2.9-2.9l0.1-0.1zm11.4-8.3c0-0.1-1.6-4.8-2.2-6.3l-0.4-1.1-0.1 0.2c-0.2 0.3-0.7 1.8-1.5 3.8-0.9 2.5-1.1 3.1-1.1 3.2 0 0 0.9 0.1 2 0.1h2.6c0.4 0.1 0.7 0.1 0.7 0.1z"/>
<path d="m253.5 105s0-0.1 0.1-0.2c0-0.1 0.1-0.2 0.3-0.2 0.3 0 2.1-0.3 2.1-0.3 0.2-0.2 0.2-14.7 0-14.8 0 0-0.5-0.1-2.1-0.3-0.3 0-0.3-0.1-0.4-0.2v-0.1h3.5c3.5 0 3.5 0 3.4 0.1 0 0.1-0.1 0.1-0.1 0.2s-0.6 0.1-1.2 0.2l-1.2 0.2v0.3c-0.1 0.4-0.1 13.5 0 14.1 0.1 0.5-0.1 0.5 1.4 0.7 1.1 0.1 1.1 0.2 1.2 0.4h-3.5c-1.9-0.1-3.5-0.1-3.5-0.1z"/>
<path d="m448.9 104.5v-0.1s0.6-0.1 1.4-0.2 1.4-0.2 1.4-0.2 0.1-0.7 0.1-1.6v-11.8-0.9h-1.3c-1.8 0-3.2 0.1-4.2 0.4-0.6 0.2-0.8 0.3-0.8 0.4s-0.1 0.4-0.2 0.8c-0.2 1.3-0.2 1.3-0.4 1.4-0.1 0-0.2 0.1-0.2 0s0-0.5 0.1-1.2c0.1-1.5 0.2-3 0.2-3.7v-0.6h0.2 0.2v0.5c0 0.3 0.1 0.6 0.1 0.7v0.2h0.5c3 0.2 11.8 0.2 14.1 0h0.4l0.1-0.5c0.1-0.3 0.1-0.6 0.1-0.7s0-0.2 0.1-0.2c0.2-0.1 0.3 0 0.3 0.1-0.1 0.2-0.3 1.8-0.5 3.6-0.1 1-0.2 1.8-0.2 1.8h-0.2-0.2v-1.3-1.3l-0.4-0.1c-0.8-0.3-2.9-0.5-4.8-0.6h-1.2v1c-0.1 1.3-0.1 9.2 0 11.6v1.8h0.2c0.1 0 0.7 0.1 1.4 0.2s1.3 0.1 1.3 0.1v0.2 0.1h-7.8l0.2 0.1z"/>
<path d="m616.7 105.4c-2.2-0.3-3.8-1-5.2-2.4-1.2-1.2-1.9-2.5-2.2-4-0.2-0.9-0.1-2.5 0-3.3 0.4-1.8 1.1-3.2 2.4-4.4 2.2-2.2 4.9-3.1 8.4-2.8 1.4 0.1 2.5 0.4 3.6 1 2.3 1.1 3.7 3 4.2 5.4 0.1 0.6 0.1 2 0 2.8-0.6 4.4-3.9 7.4-8.4 7.9-0.7-0.1-2-0.1-2.8-0.2zm4-1c2.9-0.5 4.9-2.4 5.5-5.4 0.2-0.8 0.2-2.4 0-3.2-0.7-3.3-3.2-5.8-6.5-6.6-0.8-0.2-2.5-0.2-3.4 0-3.5 0.8-5.6 3.3-5.6 6.9 0 3 1.9 6 4.7 7.4 1.7 1 3.4 1.2 5.3 0.9z"/>
<path d="m575.5 105s0-0.1 0.1-0.2c0-0.1 0.1-0.2 0.3-0.2 0.3 0 2.1-0.3 2.1-0.3 0.2-0.2 0.2-14.7 0-14.8 0 0-0.5-0.1-2.1-0.3-0.3 0-0.3-0.1-0.4-0.2v-0.1h3.5c3.5 0 3.5 0 3.4 0.1 0 0.1-0.1 0.1-0.1 0.2l-2.4 0.4v0.3c-0.1 0.4-0.1 13.5 0 14.1 0.1 0.5-0.1 0.5 1.4 0.7 1.1 0.1 1.1 0.2 1.2 0.4h-3.5c-1.9-0.1-3.5-0.1-3.5-0.1z"/>
<path d="m654.6 107c0.2-1.5 0.3-3 0.4-5.2v-1.9l0.4 0.2v0.8c0.1 1.3 0.1 1.5 0.3 1.9 0.3 0.5 1 1.2 1.5 1.5 0.7 0.4 1.2 0.5 2 0.5s1.2-0.1 1.9-0.4c1.3-0.7 2-2.2 1.6-3.7-0.3-1.1-0.8-1.7-2.8-3-1.8-1.2-2.4-1.7-3-2.3-1.2-1.3-1.5-2.9-0.8-4.4 0.4-0.8 1-1.4 1.8-1.8s1.3-0.5 2.4-0.5 1.9 0.1 2.6 0.4c0.2 0.1 0.4 0.2 0.5 0.2s0.1-0.1 0.3-1l0.2-1h0.2 0.2s0 0.4-0.1 0.9c-0.2 1.5-0.4 3.2-0.4 4.2 0 0.9 0 1-0.1 0.9-0.4-0.1-0.3 0-0.4-1 0-1.1-0.1-1.4-0.8-2-0.5-0.5-1-0.8-1.6-0.9-0.5-0.1-1.6-0.1-2 0.1-1.3 0.4-2 1.4-1.9 2.6 0.1 1.1 0.6 1.7 3.3 3.4 1.4 0.9 2 1.4 2.6 2 0.7 0.8 1.1 1.5 1.3 2.4 0.1 0.6 0 1.7-0.1 2.3-0.6 1.8-2.1 3-4.2 3.4-1.1 0.2-2.8 0-3.9-0.3-0.3-0.1-0.5-0.1-0.5-0.1s-0.1 0.5-0.2 1.1c-0.3 1.4-0.3 1.3-0.4 1.3-0.3-0.3-0.3-0.3-0.3-0.6z"/>
</svg>
