<?xml version="1.0" encoding="UTF-8"?> <!-- Generator: Adobe Illustrator 24.3.0, SVG Export Plug-In . SVG Version: 6.00 Build 0) --> <svg xmlns:cc="http://creativecommons.org/ns#" xmlns:dc="http://purl.org/dc/elements/1.1/" xmlns:rdf="http://www.w3.org/1999/02/22-rdf-syntax-ns#" xmlns:svg="http://www.w3.org/2000/svg" xmlns="http://www.w3.org/2000/svg" xmlns:xlink="http://www.w3.org/1999/xlink" version="1.1" id="svg5855" x="0px" y="0px" viewBox="0 0 500 164.3" style="enable-background:new 0 0 500 164.3;" xml:space="preserve"> <g id="layer1" transform="translate(-331.56785,-382.29375)"> <g id="g8017"> <g id="g3499" transform="matrix(7.1951349,0,0,-7.1951349,682.70985,422.73904)"> <path id="path3501" d="M0,0c0,0.2-0.2,0.3-0.4,0.3c-0.2,0-0.3-0.1-0.3-0.3c0-0.1,0-0.1,0.1-0.2c0.1,0,0.1-0.1,0.3-0.2 c0.3-0.1,0.4-0.2,0.5-0.3c0.1-0.1,0.1-0.2,0.1-0.4c0-0.4-0.3-0.6-0.7-0.6c-0.5,0-0.7,0.2-0.7,0.7h0.3c0-0.3,0.2-0.4,0.4-0.4 C-0.1-1.2,0-1.1,0-1c0,0.1,0,0.2-0.1,0.2c-0.1,0-0.1,0.1-0.3,0.2c-0.2,0.1-0.4,0.2-0.4,0.2C-1-0.2-1-0.1-1,0 c0,0.3,0.3,0.6,0.7,0.6c0.2,0,0.4-0.1,0.6-0.3C0.3,0.2,0.3,0.2,0.3,0H0z"></path> </g> <g id="g3503" transform="matrix(7.1951349,0,0,-7.1951349,690.12516,425.93656)"> <path id="path3505" d="M0,0c0-0.5,0.2-0.8,0.6-0.8c0.3,0,0.5,0.3,0.5,0.8c0,0.5-0.2,0.8-0.5,0.8S0,0.5,0,0 M1.4,0 c0-0.6-0.4-1.1-0.9-1.1C0-1.1-0.3-0.6-0.3,0c0,0.6,0.4,1,0.9,1C1.1,1,1.4,0.6,1.4,0"></path> </g> <g id="g3507" transform="matrix(7.1951349,0,0,-7.1951349,705.77098,418.66084)"> <path id="path3509" d="M0,0l0.9-1.6V0h0.3v-2H0.9L0-0.5V-2h-0.3l0,2H0z"></path> </g> <g id="g3511" transform="matrix(7.1951349,0,0,-7.1951349,719.65903,418.66084)"> <path id="path3513" d="M0,0l0.5-0.9L0.9,0h0.4L0.6-1.2V-2H0.3v0.8L-0.4,0H0z"></path> </g> <g id="g3515" transform="matrix(7.1951349,0,0,-7.1951349,739.65719,425.69481)"> <path id="path3517" d="M0,0c0.2,0,0.3,0,0.4,0c0.1,0,0.2,0.2,0.2,0.3c0,0.1-0.1,0.3-0.2,0.3c-0.1,0-0.2,0-0.4,0h-0.1l0-0.7H0z M0,1c0.3,0,0.4,0,0.6-0.1c0.2-0.1,0.4-0.3,0.4-0.6c0-0.3-0.1-0.5-0.4-0.6C0.4-0.3,0.3-0.3,0-0.3h-0.1v-0.8h-0.3v2 C-0.4,1,0,1,0,1z"></path> </g> <path id="path3519" d="M748.6,418.7h2.3v14.7h-2.3V418.7z"></path> <g id="g3521" transform="matrix(7.1951349,0,0,-7.1951349,763.04929,423.11535)"> <path id="path3523" d="M0,0c0,0.3-0.2,0.4-0.4,0.4C-0.8,0.4-1,0.1-1-0.4c0-0.5,0.2-0.8,0.5-0.8C-0.2-1.2,0-1,0-0.7h0.3 c0-0.5-0.3-0.8-0.7-0.8c-0.5,0-0.9,0.4-0.9,1.1C-1.3,0-1.2,0.3-1,0.4c0.2,0.1,0.4,0.2,0.6,0.2C0,0.7,0.2,0.4,0.3,0H0z"></path> </g> <g id="g3525" transform="matrix(7.1951349,0,0,-7.1951349,776.41066,418.66084)"> <path id="path3527" d="M0,0v-0.3h-0.5V-2h-0.3v1.8h-0.5V0L0,0z"></path> </g> <g id="g3529" transform="matrix(7.1951349,0,0,-7.1951349,781.10476,418.66084)"> <path id="path3531" d="M0,0v-1.2c0-0.3,0-0.3,0.1-0.4c0.1-0.1,0.2-0.2,0.4-0.2c0.2,0,0.4,0.1,0.4,0.3c0,0.1,0,0.1,0,0.3V0h0.3 v-1.2c0-0.3,0-0.4-0.1-0.5C1-1.9,0.8-2.1,0.5-2.1s-0.6,0.1-0.7,0.4c-0.1,0.1-0.1,0.2-0.1,0.5V0H0z"></path> </g> <g id="g3533" transform="matrix(7.1951349,0,0,-7.1951349,796.40666,425.4955)"> <path id="path3535" d="M0,0c0.2,0,0.3,0,0.4,0c0.1,0,0.2,0.2,0.2,0.3c0,0.1-0.1,0.2-0.2,0.3C0.3,0.7,0.3,0.7,0,0.7h-0.1V0H0z M0,1c0.3,0,0.5,0,0.6-0.1c0.2-0.1,0.3-0.3,0.3-0.5c0-0.3-0.1-0.5-0.4-0.6L1-1.1H0.6L0.2-0.3h-0.3v-0.8h-0.3v2 C-0.5,0.9,0,0.9,0,1z"></path> </g> <g id="g3537" transform="matrix(7.1951349,0,0,-7.1951349,814.04409,424.76735)"> <path id="path3539" d="M0,0v-0.3h-0.8v-0.6h0.9v-0.3h-1.2v2h1.2V0.6h-0.9V0H0z"></path> </g> <g id="g3541" transform="matrix(7.1951349,0,0,-7.1951349,824.66051,422.73904)"> <path id="path3543" d="M0,0c0,0.2-0.2,0.3-0.4,0.3c-0.2,0-0.3-0.1-0.3-0.3c0-0.1,0-0.1,0.1-0.2c0.1,0,0.1-0.1,0.3-0.2 c0.3-0.1,0.4-0.2,0.5-0.3c0.1-0.1,0.1-0.2,0.1-0.4c0-0.4-0.3-0.6-0.7-0.6c-0.5,0-0.7,0.2-0.7,0.7h0.3c0-0.3,0.2-0.4,0.4-0.4 C-0.1-1.2,0-1.1,0-1c0,0.1,0,0.2-0.1,0.2c-0.1,0-0.1,0.1-0.3,0.2c-0.2,0.1-0.4,0.2-0.4,0.2C-1-0.2-1-0.1-1,0 c0,0.3,0.3,0.6,0.7,0.6c0.2,0,0.4-0.1,0.6-0.3C0.3,0.2,0.3,0.2,0.3,0H0z"></path> </g> <g id="g3545" transform="matrix(7.1951349,0,0,-7.1951349,418.65776,447.05716)"> <path id="path3547" d="M0,0l1.7-1.7L3.5,0L1.7,1.7L0,0z M-7.3-7.3L-5.5-9l1.7,1.7l-1.7,1.7C-5.5-5.5-7.3-7.3-7.3-7.3z M-9.7-9.7 l1.7-1.7l1.7,1.7l-1.7,1.7C-7.9-7.9-9.7-9.7-9.7-9.7z M4.8,4.8l1.7-1.7l1.7,1.7L6.6,6.6L4.8,4.8z M2.4,2.4l1.7-1.7l1.7,1.7 L4.2,4.2L2.4,2.4z M6.8-5.7l0.6,2.4L5.1-2.7L4.4-5.1L6.8-5.7z M10.1-6.6l0.6,2.4L8.4-3.6L7.7-5.9C7.7-5.9,10.1-6.6,10.1-6.6z M-11.5,1.7l-0.6-2.4l2.4-0.6l0.6,2.4C-9.1,1.1-11.5,1.7-11.5,1.7z M-6.4-2.2l0.6,2.4l-2.4,0.6l-0.6-2.4 C-8.8-1.5-6.4-2.2-6.4-2.2z M-0.9-8.2l-2.4,0.6L-4-9.9l2.4-0.6C-1.6-10.5-0.9-8.2-0.9-8.2z M-4.2-10.8l-0.6-2.4l2.4-0.6l0.6,2.4 L-4.2-10.8z M2.8,6l0.6,2.4L1.1,9L0.5,6.6L2.8,6z M0.2,5.7l-0.6-2.4L2,2.7l0.6,2.4L0.2,5.7z M0.2-10.5l2.4,0.6L2-7.5l-2.4-0.6 C-0.4-8.2,0.2-10.5,0.2-10.5z M0.5-11.5l0.6-2.4l2.4,0.6l-0.6,2.4C2.8-10.8,0.5-11.5,0.5-11.5z M-1.8,6.6L-2.5,9l-2.4-0.6L-4.2,6 L-1.8,6.6z M-1.6,5.7L-4,5.1l0.6-2.4l2.4,0.6L-1.6,5.7z M-8.8-3.3l0.6-2.4l2.4,0.6l-0.6,2.4L-8.8-3.3z M-12.1-4.2l0.6-2.4 l2.4,0.6l-0.6,2.4L-12.1-4.2z M10.7-0.6l-0.6,2.4L7.7,1.1l0.6-2.4L10.7-0.6z M7.4-1.5L6.8,0.9L4.4,0.2l0.6-2.4L7.4-1.5z M5.9-7.3 L4.2-5.5L2.4-7.3L4.2-9L5.9-7.3z M6.6-7.9L4.8-9.7l1.7-1.7l1.7,1.7L6.6-7.9z M-6.2,4.8l-1.7,1.7l-1.7-1.7l1.7-1.7L-6.2,4.8z M-5.5,4.2l-1.7-1.7l1.7-1.7l1.7,1.7L-5.5,4.2z"></path> </g> <g id="g3549" transform="matrix(7.1951349,0,0,-7.1951349,522.66415,446.83483)"> <path id="path3551" d="M0,0h0.8v-0.7h0c0.4,0.5,0.9,0.8,1.6,0.8c0.6,0,1.1-0.2,1.3-0.8C4-0.2,4.6,0.1,5.2,0.1 c1,0,1.6-0.4,1.6-1.4v-3.6H6.1v3.2c0,0.6-0.2,1.1-0.9,1.1c-0.8,0-1.3-0.5-1.3-1.2v-3H3v3.2C3-1,2.8-0.6,2.1-0.6 c-1,0-1.3-0.9-1.3-1.2v-3H0V0z"></path> </g> <g id="g3553" transform="matrix(7.1951349,0,0,-7.1951349,597.44247,463.84701)"> <path id="path3555" d="M0,0c-0.3-0.2-0.9-0.2-1.5-0.3c-0.5-0.1-1-0.3-1-0.9c0-0.5,0.5-0.7,0.9-0.7C-0.4-1.9,0-1.3,0-0.8L0,0z M1.3-2.5C1.2-2.6,1-2.6,0.7-2.6C0.3-2.6,0-2.4,0-1.9c-0.4-0.5-1-0.8-1.7-0.8c-0.9,0-1.6,0.4-1.6,1.4c0,1.1,0.8,1.3,1.7,1.5 C-0.7,0.4,0,0.3,0,1c0,0.7-0.6,0.8-1.1,0.8c-0.7,0-1.2-0.2-1.2-0.9h-0.8c0,1.2,1,1.6,2.1,1.6c0.9,0,1.8-0.2,1.8-1.3v-2.5 c0-0.4,0-0.5,0.3-0.5c0.1,0,0.1,0,0.2,0C1.3-1.9,1.3-2.5,1.3-2.5z"></path> </g> <g id="g3557" transform="matrix(7.1951349,0,0,-7.1951349,632.14245,463.7103)"> <path id="path3559" d="M0,0c0,0.9-0.4,1.7-1.4,1.7c-1,0-1.4-0.8-1.4-1.8c0-0.9,0.3-1.9,1.4-1.9S0-0.9,0,0 M0.8-2.1 c0-1.6-0.7-2.4-2.3-2.4c-0.9,0-2,0.4-2,1.4h0.8c0-0.6,0.7-0.8,1.3-0.8C-0.4-3.9,0-3.1,0-2v0.3h0c-0.3-0.6-0.9-0.9-1.5-0.9 c-1.5,0-2.2,1.1-2.2,2.5c0,1.2,0.6,2.6,2.3,2.6c0.6,0,1.2-0.3,1.5-0.8h0h0v0.7h0.8C0.8,2.3,0.8-2.1,0.8-2.1z"></path> </g> <g id="g3561" transform="matrix(7.1951349,0,0,-7.1951349,666.23084,461.05602)"> <path id="path3563" d="M0,0c0,0.8-0.6,1.4-1.4,1.4c-0.8,0-1.3-0.6-1.4-1.4H0z M0.8-1.4C0.6-2.4-0.2-3-1.3-3 c-1.6,0-2.3,1.1-2.3,2.6c0,1.5,1,2.5,2.3,2.5c1.7,0,2.3-1.6,2.2-2.8h-3.7c0-0.9,0.5-1.6,1.5-1.6c0.7,0,1.1,0.3,1.3,1 C0-1.4,0.8-1.4,0.8-1.4z"></path> </g> <g id="g3565" transform="matrix(7.1951349,0,0,-7.1951349,708.14322,482.01185)"> <path id="path3567" d="M0,0h-0.9l-1,3.9h0l-1-3.9h-0.9l-1.6,4.9h0.9l1.1-4h0l1,4h0.9l1-4h0l1.1,4h0.8L0,0z"></path> </g> <g id="g3569" transform="matrix(7.1951349,0,0,-7.1951349,734.27163,477.72714)"> <path id="path3571" d="M0,0c0.8,0,1.5,0.7,1.5,1.8C1.5,3,0.8,3.7,0,3.7c-0.8,0-1.5-0.7-1.5-1.9C-1.5,0.7-0.8,0,0,0 M0,4.4 c1.6,0,2.4-1.1,2.4-2.6c0-1.4-0.8-2.6-2.4-2.6s-2.4,1.1-2.4,2.6C-2.4,3.3-1.6,4.4,0,4.4"></path> </g> <g id="g3573" transform="matrix(7.1951349,0,0,-7.1951349,753.59632,446.83483)"> <path id="path3575" d="M0,0h0.8v-1h0c0.4,0.8,0.9,1.2,1.8,1.1v-0.9c-1.3,0-1.8-0.7-1.8-2v-2.2H0V0z"></path> </g> <g id="g3577" transform="matrix(7.1951349,0,0,-7.1951349,774.21038,433.43102)"> <path id="path3579" d="M0,0h0.8v-4L3-1.9h1.1L2.2-3.6l2.1-3.1h-1L1.6-4.2L0.8-4.9v-1.9H0V0z"></path> </g> <g id="g3581" transform="matrix(7.1951349,0,0,-7.1951349,807.48357,470.92199)"> <path id="path3583" d="M0,0c0-0.7,0.7-0.9,1.3-0.9c0.5,0,1.2,0.1,1.2,0.7c0,0.6-0.8,0.7-1.6,0.9C0.1,0.9-0.7,1.1-0.7,2.1 c0,1,1,1.4,1.8,1.4c1.1,0,1.9-0.3,2-1.5H2.3C2.3,2.6,1.7,2.8,1.2,2.8c-0.5,0-1-0.1-1-0.6c0-0.6,0.9-0.7,1.6-0.9 c0.8-0.2,1.6-0.4,1.6-1.4c0-1.2-1.1-1.5-2.1-1.5c-1.1,0-2,0.4-2.1,1.7L0,0z"></path> </g> <path id="path3585" d="M513.6,482h5.8v-35.2h-5.8V482z"></path> <path id="path3587" d="M513.6,440.5h5.8v-5.8h-5.8V440.5z"></path> </g> </g> </svg> 