<?xml version="1.0" encoding="UTF-8"?>
<svg enable-background="new 0 0 1000 359.5" version="1.1" viewBox="0 0 1e3 359.5" xml:space="preserve" xmlns="http://www.w3.org/2000/svg">
<path d="m521.4 286.5c-8.7-10.8-24.8-16.3-42.5-16.3h-51v87.5h51c17.7 0 33.8-5.4 42.5-16.3 6.1-7.6 9.2-16.8 9.5-27.5-0.3-10.6-3.5-19.9-9.5-27.4m-24.9 39.8c-3.5 6.3-12.2 9.5-21.3 9.5h-16.7l-0.1-43.7h16.7c9.1 0 17.9 3.2 21.3 9.5 1.9 3.4 2.8 7.6 2.9 12.4 0 4.8-1 8.9-2.8 12.3m145.8-2.4h19.7c-1 5.3-7.1 9.4-10.1 10.9-4.4 2.3-11.1 4.1-17.8 3.7-6.8-0.3-10.7-0.9-17.2-6-4.6-3.7-7.6-10.5-7.6-18.8 0-8.5 2.4-15.5 7.1-19.5 4.9-4.2 10.5-7.2 19.4-7.4 14.6-0.4 19.5 5.6 20.2 6.8l32.4-5.5c-4.9-8.7-15.9-22.2-53.4-21.4-16.9 0.4-31.1 3.8-41.5 12.1-10.7 8.5-15 21.1-15.5 35.2-0.5 16.1 7.1 27.2 17.4 35.5 9.3 7.5 18.5 10 33.8 10 9.3 0 18.7-2.6 25.2-5.5 2.4-1 6.3-3.5 8.8-5.7l0.1 9.6h28.8v-52.4h-49.8v18.4zm-104 33.8h31v-87.6h-31v87.6zm415.7-87.6h-31.1v87.6h77v-22.5h-45.9v-65.1zm-133.3 0.1h-79.5v22.3h24.2v65.4h31.3v-65.4h24v-22.3zm-118.9 87.4h31v-87.6h-31v87.6zm296.9-251.1c-2.9-20.9-22-54.7-118.5-56.7-71.4-1.5-113.3 13.6-132.3 37.1v-37.4h-32.6v-49.5h-86.8v49.5h-27.1v48.8c-17.8-25.8-52.2-48.7-118.9-49.3-39.3-0.3-67.9 5.8-88.7 15.6l6-15.3h-86l-31.7 94.9-40.9-94.9h-82.9l-40.6 95.1-31.7-95.1h-86l79 200.7h76.3l44.6-117.5 44.6 117.5h76.3l23-58.4c13.5 31.6 53.9 65.1 136 64.2 89-1.1 132.6-39.4 140.6-75.7h-88.4c-9 18.2-29.6 28.7-50.1 28.8-27.3 0.1-48.5-13-53.1-41.2h191.6v-1.9c0-9.4-0.6-29.4-9.5-50.1h17.6s-0.2 86.1-0.2 86.6c-1.5 46.5 25.4 47.1 38.2 47h98v-10.6c19 9.3 42.7 13.6 63.2 13.4 43.8-0.3 59.9-11 86-25.4v16.6 6h86.2v-0.3h0.1c-0.1-72.7 0.5-129.4-1.3-142.5m-569.9 21.7c8.5-23.7 30.5-32.1 53-32.1 20.7 0 42.2 10.6 48.6 32.1h-101.6zm300.8 63v1c-10.3-2.8-14.2-8.1-14.1-23l-0.3-53.6h32.6v-0.1c42.3 0 74.1 0.3 74.1 0.3s4-17.1 46-16.9c46 0.3 44.8 18.3 45 24.5-48-0.3-81.5 0.6-118.5 7-36.9 6.4-64.3 21-64.8 60.8m124.3 9.6c-45.1 1.4-45.7-31-10.5-37.6 14.6-2.7 35.5-4.9 69.6-4.1 0 6.2-13.1 40.2-59.1 41.7m-7.4 69.3-42.8 87.6h33.2l7.4-16.3h34.5l7.1 16.3h34.1l-42.4-87.6h-31.1zm4 53.4 10.6-27.6 10.8 27.5-21.4 0.1z"/>
</svg>
